<svg xmlns="http://www.w3.org/2000/svg" xmlns:svg="http://www.w3.org/2000/svg" xmlns:xlink="http://www.w3.org/1999/xlink" version="1.0" height="1419.9999952316284pt" width="1059.9999952316284pt" viewBox="375 57 1067.9999952316284 1425.9999952316284" ><defs><style type="text/css">
            @font-face {
                font-family: 'noto_regular';
                src: url('https://app.creately.com/diagram/assets/fonts/noto/noto-regular.woff') format('woff'),
                     url('https://app.creately.com/diagram/assets/fonts/noto/noto-regular.woff2') format('woff2');
                font-weight: normal;
                font-style: normal;
            }
        p {
            margin: 0;
        }
        </style></defs><defs><style>
            span{ display: inline-block; }
        </style></defs><g id="2v33ym38or"><g transform="translate(565 60)"><linearGradient id="ee1f6" x1="132.49999523162842" y1="157.5" x2="132.49999523162842" y2="0" gradientUnits="userSpaceOnUse"><stop offset="0%" stop-color="rgba(255,255,255,1)"/><stop offset="100%" stop-color="rgba(255,0,0,1)"/></linearGradient><path d="M 52.5,105 L 52.5,105 L 52.5,105 A 52.5 52.5 0 0 1 0 52.50000000000001 L 0,52.5 L 0,52.50000000000001 A 52.5 52.5 0 0 1 52.5 0 L 212.49999046325684,0 L 212.49999046325684,0 L 212.49999046325684,0 A 52.5 52.5 0 0 1 264.99999046325684 52.5 L 264.99999046325684,52.5 L 264.99999046325684,52.5 A 52.5 52.5 0 0 1 212.49999046325684 105 L 52.5,105 Z" fill="url(#ee1f6)" stroke="#b2000b" stroke-width="2" stroke-linecap="round" stroke-linejoin="round"/></g><g transform="translate(681.9999952316284, 103) rotate(0, 15.5, 9.5)" width="31" height="19"><text text-decoration="none" x="1" fill="rgb(255, 255, 255)" font-size="10pt" font-family="Lato"  y="17">Start</text><text text-decoration="none" x="30" fill="#4b4b4b" font-size="10pt" font-family="noto_regular"  y="17"></text></g></g><g id="3e7udi4lej"><g transform="translate(585 320)"><path d="M 109.99999046325684,0 L 0,64.99999523162842 L 109.99999046325684,129.99999046325684 L 219.99998092651367,64.99999523162842 L 109.99999046325684,0 Z" fill="rgba(81,198,155,1)" stroke="#40b789" stroke-width="1" stroke-linecap="round" stroke-linejoin="round"/></g><g transform="translate(657.9999904632568, 375.4999952316284) rotate(0, 37, 9.5)" width="74" height="19"><text text-decoration="none" x="2.5" fill="rgb(255, 255, 255)" font-size="10pt" font-family="Lato"  y="17">Home&#160;</text><text text-decoration="none" x="42.5" fill="rgb(255, 255, 255)" font-size="10pt" font-family="Lato"  y="17">Page</text><text text-decoration="none" x="71.5" fill="#4b4b4b" font-size="10pt" font-family="noto_regular"  y="17"></text></g></g><g id="xqnrzptmih"><g><path d="M 695,165 L 695,242.5 L 694.975,242.5 L 694.95,242.5 L 694.95,320" fill="none" stroke="#000846" stroke-width="2" stroke-linecap="round" stroke-linejoin="round"/><path d="M 694.95,320 L 700.7,311.30434782608694 L 689.2,311.30434782608694 Z" fill="rgb(0,8,70)" stroke="#000846" stroke-width="2" stroke-linecap="round" stroke-linejoin="round"/></g></g><g id="56jlkd7pvc"><g><path d="M 700,449 L 700,500" fill="none" stroke="#000846" stroke-width="2" stroke-linecap="round" stroke-linejoin="round"/></g></g><g id="2ma8rqpidl"><g><path d="M 550,501 L 850,500" fill="none" stroke="#000846" stroke-width="2" stroke-linecap="round" stroke-linejoin="round"/></g></g><g id="1zke0p8564"><mask id="42fbb" x="536" y="488" width="28.65000000000009" height="130.64999999999998" maskUnits="userSpaceOnUse"><rect x="536" y="488" width="28.65000000000009" height="130.64999999999998" fill="white" /><rect x="531.1899620951659" y="519.4993985673447" width="38" height="25" fill="black" /></mask><g mask="url(#42fbb)"><path d="M 550,502 L 550.6500000000001,604.65" fill="none" stroke="#000846" stroke-width="2" stroke-linecap="round" stroke-linejoin="round"/><path d="M 550.6500000000001,604.65 L 556.3448232485481,595.9181127528194 L 544.8450537977327,595.9909315559663 Z" fill="rgb(0,8,70)" stroke="#000846" stroke-width="2" stroke-linecap="round" stroke-linejoin="round"/></g><g transform="translate(534.1899620951659, 522.4993985673447)" width="32" height="19"><text text-decoration="none" x="0.5" fill="rgb(75, 75, 75)" font-size="10pt" font-family="Lato"  y="17">Shop</text><text text-decoration="none" x="31.5" fill="#4b4b4b" font-size="10pt" font-family="noto_regular"  y="17"></text></g></g><g id="20xy4nnsch"><mask id="bc0e5" x="634" y="488" width="28.65000000000009" height="130.64999999999998" maskUnits="userSpaceOnUse"><rect x="634" y="488" width="28.65000000000009" height="130.64999999999998" fill="white" /><rect x="615.7001375804379" y="521.1063425106801" width="65" height="25" fill="black" /></mask><g mask="url(#bc0e5)"><path d="M 648,502 L 648.6500000000001,604.65" fill="none" stroke="#000846" stroke-width="2" stroke-linecap="round" stroke-linejoin="round"/><path d="M 648.6500000000001,604.65 L 654.3448232485481,595.9181127528194 L 642.8450537977327,595.9909315559663 Z" fill="rgb(0,8,70)" stroke="#000846" stroke-width="2" stroke-linecap="round" stroke-linejoin="round"/></g><g transform="translate(618.7001375804379, 524.1063425106801)" width="59" height="19"><text text-decoration="none" x="2" fill="rgb(75, 75, 75)" font-size="10pt" font-family="Lato"  y="17">About&#160;</text><text text-decoration="none" x="42" fill="rgb(75, 75, 75)" font-size="10pt" font-family="Lato"  y="17">Us</text><text text-decoration="none" x="57" fill="#4b4b4b" font-size="10pt" font-family="noto_regular"  y="17"></text></g></g><g id="ddx3g0kuek"><mask id="803d1" x="731" y="489" width="28.65000000000009" height="130.64999999999998" maskUnits="userSpaceOnUse"><rect x="731" y="489" width="28.65000000000009" height="130.64999999999998" fill="white" /><rect x="711.2273649797769" y="526.4061771909171" width="68" height="25" fill="black" /></mask><g mask="url(#803d1)"><path d="M 745,503 L 745.6500000000001,605.65" fill="none" stroke="#000846" stroke-width="2" stroke-linecap="round" stroke-linejoin="round"/><path d="M 745.6500000000001,605.65 L 751.3448232485481,596.9181127528194 L 739.8450537977327,596.9909315559663 Z" fill="rgb(0,8,70)" stroke="#000846" stroke-width="2" stroke-linecap="round" stroke-linejoin="round"/></g><g transform="translate(714.2273649797769, 529.4061771909171)" width="62" height="19"><text text-decoration="none" x="2" fill="rgb(75, 75, 75)" font-size="10pt" font-family="Lato"  y="17">Locations</text><text text-decoration="none" x="60" fill="#4b4b4b" font-size="10pt" font-family="noto_regular"  y="17"></text></g></g><g id="88hgiks6a3"><mask id="33ff6" x="835" y="488" width="28.65000000000009" height="130.64999999999998" maskUnits="userSpaceOnUse"><rect x="835" y="488" width="28.65000000000009" height="130.64999999999998" fill="white" /><rect x="826.6899620951659" y="519.4993985673447" width="45" height="25" fill="black" /></mask><g mask="url(#33ff6)"><path d="M 849,502 L 849.6500000000001,604.65" fill="none" stroke="#000846" stroke-width="2" stroke-linecap="round" stroke-linejoin="round"/><path d="M 849.6500000000001,604.65 L 855.3448232485481,595.9181127528194 L 843.8450537977327,595.9909315559663 Z" fill="rgb(0,8,70)" stroke="#000846" stroke-width="2" stroke-linecap="round" stroke-linejoin="round"/></g><g transform="translate(829.6899620951659, 522.4993985673447)" width="39" height="19"><text text-decoration="none" x="1" fill="rgb(75, 75, 75)" font-size="10pt" font-family="Lato"  y="17">Home</text><text text-decoration="none" x="38" fill="#4b4b4b" font-size="10pt" font-family="noto_regular"  y="17"></text></g></g><g id="228y8plu7t"><g transform="translate(495 605)"><path d="M 52.49999761581421,0 L 0,45 L 52.49999761581421,90 L 104.99999523162842,45 L 52.49999761581421,0 Z" fill="rgba(81,198,155,1)" stroke="#40b789" stroke-width="1" stroke-linecap="round" stroke-linejoin="round"/></g><g transform="translate(505.9999976158142, 632.5) rotate(0, 41.5, 17.5)" width="83" height="35"><text text-decoration="none" x="3" fill="rgb(255, 255, 255)" font-size="10pt" font-family="Lato"  y="14">Choose&#160;</text><text text-decoration="none" x="51" fill="rgb(255, 255, 255)" font-size="10pt" font-family="Lato"  y="14">shoe&#160;</text><text text-decoration="none" x="20" fill="rgb(255, 255, 255)" font-size="10pt" font-family="Lato"  y="36">section</text><text text-decoration="none" x="63" fill="#4b4b4b" font-size="10pt" font-family="noto_regular"  y="36"></text></g></g><g id="20e2exy8hp"><g><path d="M 550,695 L 550,750" fill="none" stroke="#000846" stroke-width="2" stroke-linecap="round" stroke-linejoin="round"/></g></g><g id="65acvxu5qa"><g><path d="M 500,750 L 655,750" fill="none" stroke="#000846" stroke-width="2" stroke-linecap="round" stroke-linejoin="round"/></g></g><g id="5zmx7hpenu"><mask id="dc3ff" x="486" y="736" width="28" height="168" maskUnits="userSpaceOnUse"><rect x="486" y="736" width="28" height="168" fill="white" /><rect x="478" y="829.6608531703058" width="44" height="25" fill="black" /></mask><g mask="url(#dc3ff)"><path d="M 500,890 L 500,750" fill="none" stroke="#000846" stroke-width="2" stroke-linecap="round" stroke-linejoin="round"/><path d="M 500,890 L 505.75,881.304347826087 L 494.25,881.304347826087 Z" fill="rgb(0,8,70)" stroke="#000846" stroke-width="2" stroke-linecap="round" stroke-linejoin="round"/></g><g transform="translate(481, 832.6608531703058)" width="38" height="19"><text text-decoration="none" x="1" fill="rgb(75, 75, 75)" font-size="10pt" font-family="Lato"  y="17">Men&#x27;s</text><text text-decoration="none" x="37" fill="#4b4b4b" font-size="10pt" font-family="noto_regular"  y="17"></text></g></g><g id="2cwpmnarm2"><g><path d="M 553.45,752 L 553.45,752" fill="none" stroke="#a0a0a0" stroke-width="1.5" stroke-linecap="round" stroke-linejoin="round"/></g></g><g id="1wikhxnc5q"><mask id="de257" x="561.95" y="736.7" width="28" height="128" maskUnits="userSpaceOnUse"><rect x="561.95" y="736.7" width="28" height="128" fill="white" /><rect x="542.95" y="808.2" width="66" height="25" fill="black" /></mask><g mask="url(#de257)"><path d="M 575.95,850.7 L 575.95,750.7" fill="none" stroke="#000846" stroke-width="2" stroke-linecap="round" stroke-linejoin="round"/><path d="M 575.95,850.7 L 581.7,842.004347826087 L 570.2,842.004347826087 Z" fill="rgb(0,8,70)" stroke="#000846" stroke-width="2" stroke-linecap="round" stroke-linejoin="round"/></g><g transform="translate(545.95, 811.2)" width="60" height="19"><text text-decoration="none" x="2" fill="rgb(75, 75, 75)" font-size="10pt" font-family="Lato"  y="17">Women&#x27;s</text><text text-decoration="none" x="58" fill="#4b4b4b" font-size="10pt" font-family="noto_regular"  y="17"></text></g></g><g id="1eo0egyfk3"><mask id="8fcf5" x="641" y="736" width="30" height="173" maskUnits="userSpaceOnUse"><rect x="641" y="736" width="30" height="173" fill="white" /><rect x="620.4215354342424" y="815.6886810174248" width="71" height="25" fill="black" /></mask><g mask="url(#8fcf5)"><path d="M 655,895 L 657,750" fill="none" stroke="#000846" stroke-width="2" stroke-linecap="round" stroke-linejoin="round"/><path d="M 655,895 L 660.8693817324728,886.3844776822184 L 649.3704755121976,886.2258720791801 Z" fill="rgb(0,8,70)" stroke="#000846" stroke-width="2" stroke-linecap="round" stroke-linejoin="round"/></g><g transform="translate(623.4215354342424, 818.6886810174248)" width="65" height="19"><text text-decoration="none" x="3" fill="rgb(75, 75, 75)" font-size="10pt" font-family="Lato"  y="17">Children&#x27;s</text><text text-decoration="none" x="62" fill="#4b4b4b" font-size="10pt" font-family="noto_regular"  y="17"></text></g></g><g id="1vznq74ert"><g transform="translate(705 605)"><rect x="0" y="0" width="84.99999874830246" height="29.999998211860657" fill="rgba(62,139,185,1)" stroke="#367da5" stroke-width="1" stroke-linecap="round" stroke-linejoin="round"/></g><g transform="translate(705.9999993741512, 610.4999991059303) rotate(0, 41.5, 9.5)" width="83" height="19"><text text-decoration="none" x="4" fill="rgb(255, 255, 255)" font-size="10pt" font-family="Lato"  y="17">Local&#160;</text><text text-decoration="none" x="38" fill="rgb(255, 255, 255)" font-size="10pt" font-family="Lato"  y="17">Stores&#160;</text><text text-decoration="none" x="79" fill="#4b4b4b" font-size="10pt" font-family="noto_regular"  y="17"></text></g></g><g id="2lt2cgmqay"><g transform="translate(810 605)"><rect x="0" y="0" width="84.99999874830246" height="29.999998211860657" fill="rgba(62,139,185,1)" stroke="#367da5" stroke-width="1" stroke-linecap="round" stroke-linejoin="round"/></g><g transform="translate(817.9999993741512, 602.4999991059303) rotate(0, 34.5, 17.5)" width="69" height="35"><text text-decoration="none" x="6" fill="rgb(255, 255, 255)" font-size="10pt" font-family="Lato"  y="14">Return&#160;</text><text text-decoration="none" x="50" fill="rgb(255, 255, 255)" font-size="10pt" font-family="Lato"  y="14">to&#160;</text><text text-decoration="none" x="3.5" fill="rgb(255, 255, 255)" font-size="10pt" font-family="Lato"  y="36">main&#160;</text><text text-decoration="none" x="36.5" fill="rgb(255, 255, 255)" font-size="10pt" font-family="Lato"  y="36">page</text><text text-decoration="none" x="65.5" fill="#4b4b4b" font-size="10pt" font-family="noto_regular"  y="36"></text></g></g><g id="2312btvmsx"><g transform="translate(600 605) rotate(-1.2856148189324889e-14)"><rect x="0" y="0" width="94.99991148710251" height="63.732338547706604" fill="rgba(62,139,185,1)" stroke="#367da5" stroke-width="1" stroke-linecap="round" stroke-linejoin="round"/></g><g transform="translate(609.4999557435513, 619.3661692738533) rotate(0, 38, 17.5)" width="76" height="35"><text text-decoration="none" x="2" fill="rgb(255, 255, 255)" font-size="10pt" font-family="Lato"  y="14">Information&#160;</text><text text-decoration="none" x="3" fill="rgb(255, 255, 255)" font-size="10pt" font-family="Lato"  y="36">about&#160;</text><text text-decoration="none" x="42" fill="rgb(255, 255, 255)" font-size="10pt" font-family="Lato"  y="36">store</text><text text-decoration="none" x="73" fill="#4b4b4b" font-size="10pt" font-family="noto_regular"  y="36"></text></g></g><g id="ae62negypo"><g><path d="M 895,630 L 915,630 L 915,507.475 L 915,384.95 L 804.95,384.95" fill="none" stroke="#000846" stroke-width="2" stroke-linecap="round" stroke-linejoin="round"/><path d="M 804.95,384.95 L 813.645652173913,390.7 L 813.645652173913,379.2 Z" fill="rgb(0,8,70)" stroke="#000846" stroke-width="2" stroke-linecap="round" stroke-linejoin="round"/></g></g><g id="1e1kxge48b"><g transform="translate(460 855)"><path d="M 114.99998569488525,0 L 0,64.99999523162842 L 114.99998569488525,129.99999046325684 L 229.9999713897705,64.99999523162842 L 114.99998569488525,0 Z" fill="rgba(81,198,155,1)" stroke="#40b789" stroke-width="1" stroke-linecap="round" stroke-linejoin="round"/></g><g transform="translate(516.9999856948853, 910.4999952316284) rotate(0, 58, 9.5)" width="116" height="19"><text text-decoration="none" x="4.5" fill="rgb(255, 255, 255)" font-size="10pt" font-family="Lato"  y="17">Choose&#160;</text><text text-decoration="none" x="52.5" fill="rgb(255, 255, 255)" font-size="10pt" font-family="Lato"  y="17">shoe&#160;</text><text text-decoration="none" x="84.5" fill="rgb(255, 255, 255)" font-size="10pt" font-family="Lato"  y="17">type</text><text text-decoration="none" x="111.5" fill="#4b4b4b" font-size="10pt" font-family="noto_regular"  y="17"></text></g></g><g id="kn61yf7hir"><g><path d="M 575,1050 L 574,985" fill="none" stroke="#000846" stroke-width="2" stroke-linecap="round" stroke-linejoin="round"/></g></g><g id="1kkl0l1qbp"><g><path d="M 500,1050 L 700,1050" fill="none" stroke="#000846" stroke-width="2" stroke-linecap="round" stroke-linejoin="round"/></g></g><g id="1gn8rlou7w"><mask id="f5c2d" x="486" y="1037" width="28" height="178" maskUnits="userSpaceOnUse"><rect x="486" y="1037" width="28" height="178" fill="white" /><rect x="453" y="1158.5" width="94" height="25" fill="black" /></mask><g mask="url(#f5c2d)"><path d="M 500,1051 L 500,1201" fill="none" stroke="#000846" stroke-width="2" stroke-linecap="round" stroke-linejoin="round"/><path d="M 500,1201 L 505.75,1192.304347826087 L 494.25,1192.304347826087 Z" fill="rgb(0,8,70)" stroke="#000846" stroke-width="2" stroke-linecap="round" stroke-linejoin="round"/></g><g transform="translate(456, 1161.5)" width="88" height="19"><text text-decoration="none" x="3.5" fill="rgb(75, 75, 75)" font-size="10pt" font-family="Lato"  y="17">Formal&#160;</text><text text-decoration="none" x="48.5" fill="rgb(75, 75, 75)" font-size="10pt" font-family="Lato"  y="17">Shoes</text><text text-decoration="none" x="84.5" fill="#4b4b4b" font-size="10pt" font-family="noto_regular"  y="17"></text></g></g><g id="129cut7f6b"><mask id="61674" x="536" y="1037" width="28" height="147" maskUnits="userSpaceOnUse"><rect x="536" y="1037" width="28" height="147" fill="white" /><rect x="499.5" y="1119.5422924901186" width="101" height="25" fill="black" /></mask><g mask="url(#61674)"><path d="M 550,1051 L 550,1170" fill="none" stroke="#000846" stroke-width="2" stroke-linecap="round" stroke-linejoin="round"/><path d="M 550,1170 L 555.75,1161.304347826087 L 544.25,1161.304347826087 Z" fill="rgb(0,8,70)" stroke="#000846" stroke-width="2" stroke-linecap="round" stroke-linejoin="round"/></g><g transform="translate(502.5, 1122.5422924901186)" width="95" height="19"><text text-decoration="none" x="3" fill="rgb(75, 75, 75)" font-size="10pt" font-family="Lato"  y="17">Running&#160;</text><text text-decoration="none" x="56" fill="rgb(75, 75, 75)" font-size="10pt" font-family="Lato"  y="17">Shoes</text><text text-decoration="none" x="92" fill="#4b4b4b" font-size="10pt" font-family="noto_regular"  y="17"></text></g></g><g id="af4frsuvym"><mask id="6886a" x="586" y="1036" width="28" height="128" maskUnits="userSpaceOnUse"><rect x="586" y="1036" width="28" height="128" fill="white" /><rect x="553.5" y="1067.5" width="93" height="25" fill="black" /></mask><g mask="url(#6886a)"><path d="M 600,1050 L 600,1150" fill="none" stroke="#000846" stroke-width="2" stroke-linecap="round" stroke-linejoin="round"/><path d="M 600,1150 L 605.75,1141.304347826087 L 594.25,1141.304347826087 Z" fill="rgb(0,8,70)" stroke="#000846" stroke-width="2" stroke-linecap="round" stroke-linejoin="round"/></g><g transform="translate(556.5, 1070.5)" width="87" height="19"><text text-decoration="none" x="4.5" fill="rgb(75, 75, 75)" font-size="10pt" font-family="Lato"  y="17">Casual&#160;</text><text text-decoration="none" x="46.5" fill="rgb(75, 75, 75)" font-size="10pt" font-family="Lato"  y="17">Shoes</text><text text-decoration="none" x="82.5" fill="#4b4b4b" font-size="10pt" font-family="noto_regular"  y="17"></text></g></g><g id="1up3urin5g"><mask id="a1304" x="636" y="1036" width="28" height="148" maskUnits="userSpaceOnUse"><rect x="636" y="1036" width="28" height="148" fill="white" /><rect x="628.5" y="1108.409090909091" width="43" height="25" fill="black" /></mask><g mask="url(#a1304)"><path d="M 650,1050 L 650,1170" fill="none" stroke="#000846" stroke-width="2" stroke-linecap="round" stroke-linejoin="round"/><path d="M 650,1170 L 655.75,1161.304347826087 L 644.25,1161.304347826087 Z" fill="rgb(0,8,70)" stroke="#000846" stroke-width="2" stroke-linecap="round" stroke-linejoin="round"/></g><g transform="translate(631.5, 1111.409090909091)" width="37" height="19"><text text-decoration="none" x="1" fill="rgb(75, 75, 75)" font-size="10pt" font-family="Lato"  y="17">Boots</text><text text-decoration="none" x="36" fill="#4b4b4b" font-size="10pt" font-family="noto_regular"  y="17"></text></g></g><g id="d6b93ft68y"><mask id="aa5f3" x="686" y="1036" width="28" height="178" maskUnits="userSpaceOnUse"><rect x="686" y="1036" width="28" height="178" fill="white" /><rect x="673" y="1129.6875" width="54" height="25" fill="black" /></mask><g mask="url(#aa5f3)"><path d="M 700,1050 L 700,1200" fill="none" stroke="#000846" stroke-width="2" stroke-linecap="round" stroke-linejoin="round"/><path d="M 700,1200 L 705.75,1191.304347826087 L 694.25,1191.304347826087 Z" fill="rgb(0,8,70)" stroke="#000846" stroke-width="2" stroke-linecap="round" stroke-linejoin="round"/></g><g transform="translate(676, 1132.6875)" width="48" height="19"><text text-decoration="none" x="2" fill="rgb(75, 75, 75)" font-size="10pt" font-family="Lato"  y="17">Loafers</text><text text-decoration="none" x="46" fill="#4b4b4b" font-size="10pt" font-family="noto_regular"  y="17"></text></g></g><g id="2xw213m4dw"><g transform="translate(495 1150)"><path d="M 105.00000715255737,0 L 0,62.49999761581421 L 105.00000715255737,124.99999523162842 L 210.00001430511475,62.49999761581421 L 105.00000715255737,0 Z" fill="rgba(81,198,155,1)" stroke="#40b789" stroke-width="1" stroke-linecap="round" stroke-linejoin="round"/></g><g transform="translate(514.0000071525574, 1194.9999976158142) rotate(0, 86, 17.5)" width="172" height="35"><text text-decoration="none" x="7.5" fill="rgb(255, 255, 255)" font-size="10pt" font-family="Lato"  y="14">Do&#160;</text><text text-decoration="none" x="27.5" fill="rgb(255, 255, 255)" font-size="10pt" font-family="Lato"  y="14">you&#160;</text><text text-decoration="none" x="53.5" fill="rgb(255, 255, 255)" font-size="10pt" font-family="Lato"  y="14">want&#160;</text><text text-decoration="none" x="86.5" fill="rgb(255, 255, 255)" font-size="10pt" font-family="Lato"  y="14">these&#160;</text><text text-decoration="none" x="122.5" fill="rgb(255, 255, 255)" font-size="10pt" font-family="Lato"  y="14">type&#160;</text><text text-decoration="none" x="152.5" fill="rgb(255, 255, 255)" font-size="10pt" font-family="Lato"  y="14">of&#160;</text><text text-decoration="none" x="65.5" fill="rgb(255, 255, 255)" font-size="10pt" font-family="Lato"  y="36">shoes?</text><text text-decoration="none" x="106.5" fill="#4b4b4b" font-size="10pt" font-family="noto_regular"  y="36"></text></g></g><g id="d9unp2ib21"><g><path d="M 549,501 L 445,500" fill="none" stroke="#000846" stroke-width="2" stroke-linecap="round" stroke-linejoin="round"/></g></g><g id="1zu6s2ay5r"><mask id="5d6eb" x="431" y="486" width="28" height="123" maskUnits="userSpaceOnUse"><rect x="431" y="486" width="28" height="123" fill="white" /><rect x="417" y="517.5" width="56" height="25" fill="black" /></mask><g mask="url(#5d6eb)"><path d="M 445,500 L 445,595" fill="none" stroke="#000846" stroke-width="2" stroke-linecap="round" stroke-linejoin="round"/><path d="M 445,595 L 450.75,586.304347826087 L 439.25,586.304347826087 Z" fill="rgb(0,8,70)" stroke="#000846" stroke-width="2" stroke-linecap="round" stroke-linejoin="round"/></g><g transform="translate(420, 520.5)" width="50" height="19"><text text-decoration="none" x="0.5" fill="rgb(75, 75, 75)" font-size="10pt" font-family="Lato"  y="17">Support</text><text text-decoration="none" x="49.5" fill="#4b4b4b" font-size="10pt" font-family="noto_regular"  y="17"></text></g></g><g id="wf9ldrswvj"><g transform="translate(380 600)"><rect x="0" y="0" width="101" height="51" fill="rgba(62,139,185,1)" stroke="#367da5" stroke-width="1" stroke-linecap="round" stroke-linejoin="round"/></g><g transform="translate(387, 608) rotate(0, 43.5, 17.5)" width="87" height="35"><text text-decoration="none" x="6.5" fill="rgb(255, 255, 255)" font-size="10pt" font-family="Lato"  y="14">Contact&#160;</text><text text-decoration="none" x="56.5" fill="rgb(255, 255, 255)" font-size="10pt" font-family="Lato"  y="14">Info&#160;</text><text text-decoration="none" x="4" fill="rgb(255, 255, 255)" font-size="10pt" font-family="Lato"  y="36">and&#160;</text><text text-decoration="none" x="30" fill="rgb(255, 255, 255)" font-size="10pt" font-family="Lato"  y="36">Live&#160;</text><text text-decoration="none" x="57" fill="rgb(255, 255, 255)" font-size="10pt" font-family="Lato"  y="36">chat</text><text text-decoration="none" x="83" fill="#4b4b4b" font-size="10pt" font-family="noto_regular"  y="36"></text></g></g><g id="c93uhqx4bw"><mask id="9654b" x="675.9999713897705" y="905.9999952316284" width="115.00004291534424" height="320.5000023841858" maskUnits="userSpaceOnUse"><rect x="675.9999713897705" y="905.9999952316284" width="115.00004291534424" height="320.5000023841858" fill="white" /><rect x="765.0000143051147" y="1060.6736384965413" width="24" height="25" fill="black" /></mask><g mask="url(#9654b)"><path d="M 705.0000143051147,1212.4999976158142 L 777.0000143051147,1212.4999976158142 L 777.0000143051147,1066.2499964237213 L 777.0000143051147,919.9999952316284 L 689.9999713897705,919.9999952316284" fill="none" stroke="#000846" stroke-width="2" stroke-linecap="round" stroke-linejoin="round"/><path d="M 689.9999713897705,919.9999952316284 L 698.6956235636835,925.7499952316284 L 698.6956235636835,914.2499952316284 Z" fill="rgb(0,8,70)" stroke="#000846" stroke-width="2" stroke-linecap="round" stroke-linejoin="round"/></g><g transform="translate(768.0000143051147, 1063.6736384965413)" width="18" height="19"><text text-decoration="none" x="0" fill="rgb(75, 75, 75)" font-size="10pt" font-family="Lato"  y="17">No</text><text text-decoration="none" x="18" fill="#4b4b4b" font-size="10pt" font-family="noto_regular"  y="17"></text></g></g><g id="1y0bze8q1w"><g transform="translate(550 1385)"><rect x="0" y="0" width="101" height="51" fill="rgba(62,139,185,1)" stroke="#367da5" stroke-width="1" stroke-linecap="round" stroke-linejoin="round"/></g><g transform="translate(559, 1393) rotate(0, 41.5, 17.5)" width="83" height="35"><text text-decoration="none" x="3" fill="rgb(255, 255, 255)" font-size="10pt" font-family="Lato"  y="14">Choose&#160;</text><text text-decoration="none" x="51" fill="rgb(255, 255, 255)" font-size="10pt" font-family="Lato"  y="14">shoe&#160;</text><text text-decoration="none" x="19.5" fill="rgb(255, 255, 255)" font-size="10pt" font-family="Lato"  y="36">color(s)</text><text text-decoration="none" x="63.5" fill="#4b4b4b" font-size="10pt" font-family="noto_regular"  y="36"></text></g></g><g id="29qokb70qs"><mask id="33017" x="586" y="1260.9999952316284" width="28.000007152557373" height="138.00000476837158" maskUnits="userSpaceOnUse"><rect x="586" y="1260.9999952316284" width="28.000007152557373" height="138.00000476837158" fill="white" /><rect x="586.5000071525574" y="1301.7857147783648" width="27" height="25" fill="black" /></mask><g mask="url(#33017)"><path d="M 600.0000071525574,1274.9999952316284 L 600.0000071525574,1330 L 600.0000035762787,1330 L 600,1330 L 600,1385" fill="none" stroke="#000846" stroke-width="2" stroke-linecap="round" stroke-linejoin="round"/><path d="M 600,1385 L 605.75,1376.304347826087 L 594.25,1376.304347826087 Z" fill="rgb(0,8,70)" stroke="#000846" stroke-width="2" stroke-linecap="round" stroke-linejoin="round"/></g><g transform="translate(589.5000071525574, 1304.7857147783648)" width="21" height="19"><text text-decoration="none" x="0.5" fill="rgb(75, 75, 75)" font-size="10pt" font-family="Lato"  y="17">Yes</text><text text-decoration="none" x="20.5" fill="#4b4b4b" font-size="10pt" font-family="noto_regular"  y="17"></text></g></g><g id="gkjjmsayyl"><g transform="translate(715 1285)"><rect x="0" y="0" width="101" height="51" fill="rgba(62,139,185,1)" stroke="#367da5" stroke-width="1" stroke-linecap="round" stroke-linejoin="round"/></g><g transform="translate(724, 1293) rotate(0, 41.5, 17.5)" width="83" height="35"><text text-decoration="none" x="3" fill="rgb(255, 255, 255)" font-size="10pt" font-family="Lato"  y="14">Choose&#160;</text><text text-decoration="none" x="51" fill="rgb(255, 255, 255)" font-size="10pt" font-family="Lato"  y="14">shoe&#160;</text><text text-decoration="none" x="30.5" fill="rgb(255, 255, 255)" font-size="10pt" font-family="Lato"  y="36">size</text><text text-decoration="none" x="52.5" fill="#4b4b4b" font-size="10pt" font-family="noto_regular"  y="36"></text></g></g><g id="4xwoxl72ps"><g><path d="M 650,1410 L 683,1410 L 683,1360 L 683,1310 L 715,1310" fill="none" stroke="#000846" stroke-width="2" stroke-linecap="round" stroke-linejoin="round"/><path d="M 715,1310 L 706.304347826087,1304.25 L 706.304347826087,1315.75 Z" fill="rgb(0,8,70)" stroke="#000846" stroke-width="2" stroke-linecap="round" stroke-linejoin="round"/></g></g><g id="19j304sral"><mask id="a4b0e" x="461" y="1198.4999976158142" width="103" height="225.5000023841858" maskUnits="userSpaceOnUse"><rect x="461" y="1198.4999976158142" width="103" height="225.5000023841858" fill="white" /><rect x="405" y="1275.0883376135" width="140" height="25" fill="black" /></mask><g mask="url(#a4b0e)"><path d="M 550,1410 L 475,1410 L 475,1311.249998807907 L 475,1212.4999976158142 L 495,1212.4999976158142" fill="none" stroke="#000846" stroke-width="2" stroke-linecap="round" stroke-linejoin="round"/><path d="M 495,1212.4999976158142 L 486.30434782608694,1206.7499976158142 L 486.30434782608694,1218.2499976158142 Z" fill="rgb(0,8,70)" stroke="#000846" stroke-width="2" stroke-linecap="round" stroke-linejoin="round"/></g><g transform="translate(408, 1278.0883376135)" width="134" height="19"><text text-decoration="none" x="7" fill="rgb(75, 75, 75)" font-size="10pt" font-family="Lato"  y="17">Don&#x27;t&#160;</text><text text-decoration="none" x="43" fill="rgb(75, 75, 75)" font-size="10pt" font-family="Lato"  y="17">like&#160;</text><text text-decoration="none" x="66" fill="rgb(75, 75, 75)" font-size="10pt" font-family="Lato"  y="17">any&#160;</text><text text-decoration="none" x="91" fill="rgb(75, 75, 75)" font-size="10pt" font-family="Lato"  y="17">colors</text><text text-decoration="none" x="127" fill="#4b4b4b" font-size="10pt" font-family="noto_regular"  y="17"></text></g></g><g id="yqt0f7rt3c"><g transform="translate(910 1285)"><rect x="0" y="0" width="101" height="51" fill="rgba(62,139,185,1)" stroke="#367da5" stroke-width="1" stroke-linecap="round" stroke-linejoin="round"/></g><g transform="translate(930, 1301) rotate(0, 30.5, 9.5)" width="61" height="19"><text text-decoration="none" x="2" fill="rgb(255, 255, 255)" font-size="10pt" font-family="Lato"  y="17">Checkout</text><text text-decoration="none" x="59" fill="#4b4b4b" font-size="10pt" font-family="noto_regular"  y="17"></text></g></g><g id="5kyt8y1phw"><g><path d="M 815,1310 L 910,1310" fill="none" stroke="#000846" stroke-width="2" stroke-linecap="round" stroke-linejoin="round"/><path d="M 910,1310 L 901.304347826087,1304.25 L 901.304347826087,1315.75 Z" fill="rgb(0,8,70)" stroke="#000846" stroke-width="2" stroke-linecap="round" stroke-linejoin="round"/></g></g><g id="17jpq7j60x"><g transform="translate(1075.05 1260)"><path d="M 0,74.4 L 20,0 L 145.00000476837158,0 L 125.00000476837158,74.4 L 0,74.4 Z" fill="rgba(62,139,185,1)" stroke="#367da5" stroke-width="1" stroke-linecap="round" stroke-linejoin="round"/></g><g transform="translate(1087.5500023841857, 1279.7) rotate(0, 60, 17.5)" width="120" height="35"><text text-decoration="none" x="6" fill="rgb(255, 255, 255)" font-size="10pt" font-family="Lato"  y="14">Enter&#160;</text><text text-decoration="none" x="41" fill="rgb(255, 255, 255)" font-size="10pt" font-family="Lato"  y="14">delivery&#160;</text><text text-decoration="none" x="91" fill="rgb(255, 255, 255)" font-size="10pt" font-family="Lato"  y="14">info&#160;</text><text text-decoration="none" x="20" fill="rgb(255, 255, 255)" font-size="10pt" font-family="Lato"  y="36">and&#160;</text><text text-decoration="none" x="46" fill="rgb(255, 255, 255)" font-size="10pt" font-family="Lato"  y="36">payment</text><text text-decoration="none" x="100" fill="#4b4b4b" font-size="10pt" font-family="noto_regular"  y="36"></text></g></g><g id="63xd8ykame"><g><path d="M 1010,1310 L 1043.025,1310 L 1043.025,1302.5 L 1043.025,1295 L 1090.05,1295" fill="none" stroke="#000846" stroke-width="2" stroke-linecap="round" stroke-linejoin="round"/><path d="M 1090.05,1295 L 1081.354347826087,1289.25 L 1081.354347826087,1300.75 Z" fill="rgb(0,8,70)" stroke="#000846" stroke-width="2" stroke-linecap="round" stroke-linejoin="round"/></g></g><g id="1ynm5ii9s1"><g transform="translate(1265 1260)"><path d="M 0,69.99999761581421 L 20,0 L 139.9999976158142,0 L 119.99999761581421,69.99999761581421 L 0,69.99999761581421 Z" fill="rgba(62,139,185,1)" stroke="#367da5" stroke-width="1" stroke-linecap="round" stroke-linejoin="round"/></g><g transform="translate(1276.999998807907, 1285.499998807907) rotate(0, 58, 9.5)" width="116" height="19"><text text-decoration="none" x="5.5" fill="rgb(255, 255, 255)" font-size="10pt" font-family="Lato"  y="17">Generate&#160;</text><text text-decoration="none" x="63.5" fill="rgb(255, 255, 255)" font-size="10pt" font-family="Lato"  y="17">Receipt&#160;</text><text text-decoration="none" x="110.5" fill="#4b4b4b" font-size="10pt" font-family="noto_regular"  y="17"></text></g></g><g id="10e80umm0b"><g><path d="M 1205.05,1295 L 1280,1295" fill="none" stroke="#000846" stroke-width="2" stroke-linecap="round" stroke-linejoin="round"/><path d="M 1280,1295 L 1271.304347826087,1289.25 L 1271.304347826087,1300.75 Z" fill="rgb(0,8,70)" stroke="#000846" stroke-width="2" stroke-linecap="round" stroke-linejoin="round"/></g></g><g id="1eip688bsx"><g transform="translate(1220 1385)"><linearGradient id="8b4ca" x1="109.99999761581421" y1="142.49999284744263" x2="109.99999761581421" y2="0" gradientUnits="userSpaceOnUse"><stop offset="0%" stop-color="rgba(255,255,255,1)"/><stop offset="100%" stop-color="rgba(255,0,0,1)"/></linearGradient><path d="M 47.49999761581421,94.99999523162842 L 47.49999761581421,94.99999523162842 L 47.49999761581421,94.99999523162842 A 47.49999761581421 47.49999761581421 0 0 1 0 47.499997615814216 L 0,47.49999761581421 L 0,47.499997615814216 A 47.49999761581421 47.49999761581421 0 0 1 47.49999761581421 0 L 172.4999976158142,0 L 172.4999976158142,0 L 172.4999976158142,0 A 47.49999761581421 47.49999761581421 0 0 1 219.99999523162842 47.49999761581421 L 219.99999523162842,47.49999761581421 L 219.99999523162842,47.49999761581421 A 47.49999761581421 47.49999761581421 0 0 1 172.4999976158142 94.99999523162842 L 47.49999761581421,94.99999523162842 Z" fill="url(#8b4ca)" stroke="#b2000b" stroke-width="2" stroke-linecap="round" stroke-linejoin="round"/></g><g transform="translate(1317.9999976158142, 1422.9999976158142) rotate(0, 12, 9.5)" width="24" height="19"><text text-decoration="none" x="0.5" fill="rgb(255, 255, 255)" font-size="10pt" font-family="Lato"  y="17">End</text><text text-decoration="none" x="23.5" fill="#4b4b4b" font-size="10pt" font-family="noto_regular"  y="17"></text></g></g><g id="660rtmm181"><g><path d="M 1320,1330 L 1320,1357.5 L 1325,1357.5 L 1330,1357.5 L 1330,1385" fill="none" stroke="#000846" stroke-width="2" stroke-linecap="round" stroke-linejoin="round"/><path d="M 1330,1385 L 1335.75,1376.304347826087 L 1324.25,1376.304347826087 Z" fill="rgb(0,8,70)" stroke="#000846" stroke-width="2" stroke-linecap="round" stroke-linejoin="round"/></g></g></svg>